<?xml version="1.0" encoding="UTF-8"?>
<svg version="1.1" xmlns="http://www.w3.org/2000/svg" width="1080" height="1080">
<path d="M0 0 C5.23957591 0.60310608 10.47703113 1.09997654 15.73539734 1.50653076 C54.81839153 4.55453919 92.91489602 12.07287796 130.03617859 24.78387451 C131.18860046 25.17421875 131.18860046 25.17421875 132.36430359 25.57244873 C149.35206286 31.34609019 165.74829746 38.282837 182.03617859 45.78387451 C183.35706482 46.38788086 183.35706482 46.38788086 184.70463562 47.00408936 C196.29965591 52.32296416 207.43478614 58.06301882 218.31156921 64.7321167 C220.51291749 66.07461505 222.74490737 67.36254839 224.97367859 68.65887451 C236.69190839 75.72574563 247.94462478 83.60158914 259.02055359 91.62762451 C261.13544145 93.13982412 263.23635895 94.55156195 265.42680359 95.94012451 C266.28789734 96.54856201 267.14899109 97.15699951 268.03617859 97.78387451 C268.03617859 98.44387451 268.03617859 99.10387451 268.03617859 99.78387451 C268.69617859 99.96949951 269.35617859 100.15512451 270.03617859 100.34637451 C273.53190984 102.0214124 275.89325194 104.14891304 278.74711609 106.74090576 C281.1963691 108.92684318 283.72605485 110.97913543 286.28617859 113.03387451 C291.38267417 117.17610254 296.21357234 121.5365238 301.01664734 126.01043701 C303.26330474 128.09789444 305.56457184 130.11015892 307.88774109 132.11199951 C312.19048699 135.86101758 316.21476123 139.85008546 320.22367859 143.90887451 C320.90881531 144.59852295 321.59395203 145.28817139 322.29985046 145.99871826 C323.62644248 147.33424786 324.95153997 148.6712641 326.27494812 150.00994873 C327.72675135 151.47221686 329.19389998 152.91923279 330.66508484 154.36199951 C333.51071695 157.26857597 336.15339748 160.31009928 338.78617859 163.40887451 C339.30913513 164.02206543 339.83209167 164.63525635 340.37089539 165.26702881 C345.00117648 170.7117982 349.55940959 176.21200547 354.03617859 181.78387451 C354.85408875 182.79707764 354.85408875 182.79707764 355.68852234 183.83074951 C395.79279542 234.42684954 422.51320113 291.82081379 440.99613953 353.33123779 C442.09638575 356.98374531 443.21019298 360.63195404 444.32524109 364.27996826 C457.43516986 407.2643968 467.09117322 450.54384847 467.23930359 495.71746826 C467.24213097 496.40511827 467.24495834 497.09276829 467.2478714 497.80125618 C467.26273536 501.45505251 467.27203997 505.10881081 467.27641296 508.76263428 C467.28075318 511.7048208 467.29448856 514.6467067 467.31742859 517.58880615 C467.53688055 546.3433798 465.53212346 574.49143281 460.03617859 602.78387451 C459.82090515 603.89327393 459.60563171 605.00267334 459.38383484 606.14569092 C452.765876 639.66079177 442.49966191 672.38227959 429.03617859 703.78387451 C428.53602234 704.98141357 428.03586609 706.17895264 427.52055359 707.41278076 C421.18469871 722.42233957 413.32425546 736.5947133 405.34867859 750.78387451 C404.82644714 751.7146582 404.3042157 752.64544189 403.76615906 753.60443115 C394.88379717 769.27483743 384.7869693 784.33683946 374.03617859 798.78387451 C373.32848328 799.74809326 372.62078796 800.71231201 371.89164734 801.70574951 C367.16849478 808.09151794 362.2392118 814.23476026 357.10258484 820.28778076 C354.9525537 822.79739291 354.9525537 822.79739291 353.03617859 825.78387451 C352.37617859 825.78387451 351.71617859 825.78387451 351.03617859 825.78387451 C350.76805359 826.36137451 350.49992859 826.93887451 350.22367859 827.53387451 C349.0068867 829.83937494 347.7328398 831.80443644 346.03617859 833.78387451 C345.37617859 833.78387451 344.71617859 833.78387451 344.03617859 833.78387451 C343.76757019 834.37394287 343.49896179 834.96401123 343.22221375 835.57196045 C342.03068209 837.7941253 340.78453041 839.34637614 339.05961609 841.17449951 C338.47470398 841.7983252 337.88979187 842.42215088 337.28715515 843.06488037 C336.66808289 843.71464844 336.04901062 844.3644165 335.41117859 845.03387451 C334.78179382 845.69975586 334.15240906 846.36563721 333.50395203 847.05169678 C331.68728233 848.96817579 329.86312749 850.87719852 328.03617859 852.78387451 C327.16735046 853.6952417 326.29852234 854.60660889 325.40336609 855.54559326 C321.52559496 859.53068278 321.52559496 859.53068278 320.03617859 860.78387451 C319.37617859 860.78387451 318.71617859 860.78387451 318.03617859 860.78387451 C317.70617859 861.77387451 317.37617859 862.76387451 317.03617859 863.78387451 C315.54008484 865.29168701 315.54008484 865.29168701 313.59867859 866.90887451 C310.41738484 869.60335107 307.30151222 872.3465409 304.22367859 875.15887451 C291.74666665 886.38629193 278.3135803 896.5882056 264.48320007 906.09320068 C262.9040516 907.18425158 261.33117298 908.28446034 259.76615906 909.39569092 C253.82361431 913.61405033 247.75024241 917.54175198 241.53617859 921.34637451 C240.22713562 922.1536499 240.22713562 922.1536499 238.89164734 922.97723389 C236.2773763 924.58646295 233.65792902 926.18686415 231.03617859 927.78387451 C230.22406921 928.28048584 229.41195984 928.77709717 228.57524109 929.28875732 C198.20459019 947.71248684 165.70785126 962.51948136 132.03617859 973.78387451 C131.19329285 974.0661792 130.3504071 974.34848389 129.48197937 974.63934326 C100.58289692 984.24266614 70.62278772 991.21874236 40.30961609 994.43548584 C37.82614207 994.69979949 35.35072819 994.99050358 32.87211609 995.29437256 C17.49789426 997.07220753 2.12803223 997.12535728 -13.32514954 997.09954834 C-16.3165145 997.09494239 -19.30747033 997.10175991 -22.29878235 997.12005615 C-49.40647868 997.28427192 -76.26261574 995.82816903 -102.96382141 990.78387451 C-103.83361633 990.62193604 -104.70341125 990.45999756 -105.5995636 990.29315186 C-146.37146616 982.57627481 -187.87478904 970.59935436 -224.74897766 951.31903076 C-228.43527456 949.55874561 -232.16175901 948.21703732 -236.02632141 946.90887451 C-250.83674419 941.88288805 -264.99086041 935.33696212 -279.08882141 928.59637451 C-280.10718079 928.10959229 -281.12554016 927.62281006 -282.17475891 927.12127686 C-293.06903713 921.85416427 -303.55152431 915.94005017 -313.96382141 909.78387451 C-314.80638489 909.2912915 -314.80638489 909.2912915 -315.66596985 908.78875732 C-337.52135845 896.01045405 -357.65787451 881.27895299 -377.19966125 865.22332764 C-379.66108074 863.21495104 -382.15633158 861.25029613 -384.65132141 859.28387451 C-387.98277048 856.62756961 -390.98648651 853.83755133 -393.96382141 850.78387451 C-396.35307154 848.69124897 -398.75465343 846.61486123 -401.17085266 844.55340576 C-401.76253235 843.96946045 -402.35421204 843.38551514 -402.96382141 842.78387451 C-402.96382141 842.12387451 -402.96382141 841.46387451 -402.96382141 840.78387451 C-403.51554016 840.55699951 -404.06725891 840.33012451 -404.63569641 840.09637451 C-407.65074558 838.39661525 -409.7761251 836.23582635 -412.21382141 833.78387451 C-413.10585266 832.89699951 -413.99788391 832.01012451 -414.91694641 831.09637451 C-416.96382141 828.78387451 -416.96382141 828.78387451 -416.96382141 826.78387451 C-417.52585266 826.55699951 -418.08788391 826.33012451 -418.66694641 826.09637451 C-421.61009002 824.41457817 -423.46426873 822.31278341 -425.71382141 819.78387451 C-426.51304016 818.89699951 -427.31225891 818.01012451 -428.13569641 817.09637451 C-429.96382141 814.78387451 -429.96382141 814.78387451 -429.96382141 812.78387451 C-430.56194641 812.53637451 -431.16007141 812.28887451 -431.77632141 812.03387451 C-434.2800906 810.60314926 -435.44454529 809.21471631 -436.96382141 806.78387451 C-436.96382141 806.12387451 -436.96382141 805.46387451 -436.96382141 804.78387451 C-437.95382141 804.45387451 -438.94382141 804.12387451 -439.96382141 803.78387451 C-441.51589949 801.99029661 -442.981546 800.12140236 -444.40132141 798.22137451 C-444.83670227 797.64129639 -445.27208313 797.06121826 -445.72065735 796.46356201 C-446.65774935 795.21410601 -447.59206437 793.96256341 -448.52388 792.70916748 C-449.93182781 790.82665199 -451.36015985 788.96169329 -452.79585266 787.10028076 C-492.91662284 734.8212907 -520.11968439 675.95023473 -537.45472717 612.63482666 C-537.89623303 611.02961067 -538.34558134 609.42655564 -538.79634094 607.82391357 C-563.26888356 520.71594744 -556.00100308 422.67128564 -512.96382141 290.78387451 C-512.51039368 289.66118164 -512.51039368 289.66118164 -512.04780579 288.51580811 C-508.83973525 280.61304875 -505.11945303 273.13072006 -501.04194641 265.65496826 C-498.53402148 261.03467154 -496.2163811 256.32188046 -493.92915344 251.58905029 C-491.69276255 247.03112977 -489.16729368 242.69791594 -486.52973938 238.36077881 C-485.00950843 235.85905793 -483.51802388 233.34244124 -482.03413391 230.81903076 C-476.70680185 221.80546676 -471.28621306 213.13498963 -464.96382141 204.78387451 C-463.87366235 203.22612916 -462.79042601 201.66351838 -461.71382141 200.09637451 C-452.81752071 187.37587216 -443.30984826 175.35351471 -432.96382141 163.78387451 C-432.11432922 162.83383545 -431.26483704 161.88379639 -430.38960266 160.90496826 C-428.98355558 159.34136752 -427.57420813 157.78071659 -426.15913391 156.22528076 C-424.91478475 154.8414405 -423.67759584 153.45085355 -422.46455383 152.03948975 C-417.87012962 146.70341211 -413.01695092 141.68673501 -408.02632141 136.72137451 C-407.26641907 135.95760498 -406.50651672 135.19383545 -405.72358704 134.40692139 C-401.54881691 130.23928152 -397.28945692 126.23807629 -392.81904602 122.3895874 C-389.53479109 119.54703645 -386.36947001 116.57490129 -383.19038391 113.61590576 C-375.79708097 106.78387451 -375.79708097 106.78387451 -372.96382141 106.78387451 C-372.96382141 106.12387451 -372.96382141 105.46387451 -372.96382141 104.78387451 C-371.2683825 103.36199046 -369.5036507 102.02244272 -367.71382141 100.72137451 C-366.59510938 99.90266797 -365.47662549 99.0836496 -364.35835266 98.26434326 C-363.78681458 97.84845947 -363.21527649 97.43257568 -362.62641907 97.00408936 C-360.19072711 95.2164846 -357.80066477 93.36986427 -355.40132141 91.53387451 C-341.05946951 80.78689625 -326.10859654 70.67458999 -310.35835266 62.10418701 C-307.45012496 60.50062916 -304.58599477 58.82615258 -301.71382141 57.15887451 C-288.53800685 49.58806801 -275.14857698 42.2794304 -260.96382141 36.78387451 C-259.02446722 35.97581027 -257.08701983 35.16315731 -255.15132141 34.34637451 C-254.14198547 33.92871826 -253.13264954 33.51106201 -252.09272766 33.08074951 C-250.03342898 32.22720749 -247.97855921 31.36288732 -245.92866516 30.48699951 C-217.9308155 18.82941533 -188.60093387 10.93380713 -158.96382141 4.78387451 C-158.03037903 4.58906494 -157.09693665 4.39425537 -156.13520813 4.19354248 C-149.44188186 2.8301558 -142.72544687 1.74871168 -135.96382141 0.78387451 C-134.70472961 0.60050537 -133.44563782 0.41713623 -132.14839172 0.22821045 C-88.54620798 -5.94373736 -43.66526977 -5.04720134 0 0 Z M-77.77632141 19.59637451 C-79.11058587 19.7830602 -80.44489638 19.96941709 -81.7792511 20.15545654 C-85.51011716 20.68049706 -89.23736418 21.22834795 -92.96382141 21.78387451 C-93.82475403 21.91165283 -94.68568665 22.03943115 -95.57270813 22.17108154 C-113.80651472 24.95168645 -132.24749034 29.05007886 -149.70845032 35.01629639 C-152.36459921 35.92027259 -155.02970923 36.79569481 -157.69429016 37.67449951 C-180.318345 45.23155137 -202.62490841 54.09402866 -223.96382141 64.78387451 C-225.63251282 65.60951904 -225.63251282 65.60951904 -227.33491516 66.45184326 C-251.93000572 79.09835407 -275.12378107 94.57119581 -297.06147766 111.34881592 C-298.43225005 112.38287651 -299.81689217 113.39864181 -301.20991516 114.40252686 C-301.94339172 114.93442627 -302.67686829 115.46632568 -303.43257141 116.01434326 C-304.10739563 116.49669434 -304.78221985 116.97904541 -305.47749329 117.47601318 C-305.96798157 117.90760742 -306.45846985 118.33920166 -306.96382141 118.78387451 C-306.96382141 119.44387451 -306.96382141 120.10387451 -306.96382141 120.78387451 C-307.51682922 121.03008545 -308.06983704 121.27629639 -308.63960266 121.52996826 C-316.35830135 125.69417377 -322.79189906 132.44717065 -328.86225891 138.67840576 C-330.76820263 140.58789213 -332.72162995 142.35030954 -334.77632141 144.09637451 C-342.45634118 150.70119151 -349.63955293 158.01803888 -356.19429016 165.73699951 C-358.36717076 168.25044198 -360.63768665 170.66442699 -362.90132141 173.09637451 C-367.04300593 177.62259899 -370.6847501 182.33176936 -374.17475891 187.37371826 C-375.96382141 189.78387451 -375.96382141 189.78387451 -377.81538391 191.60028076 C-380.89481289 194.7301004 -383.38538315 198.2375026 -385.96382141 201.78387451 C-386.42949524 202.42147705 -386.89516907 203.05907959 -387.37495422 203.71600342 C-393.37371232 211.9871472 -399.11294862 220.4073279 -404.58882141 229.03387451 C-405.0975177 229.8315625 -405.60621399 230.62925049 -406.13032532 231.45111084 C-408.44275855 235.1345597 -410.55499954 238.64028078 -411.96382141 242.78387451 C-408.22393872 239.30986026 -405.34032613 235.38343172 -402.33882141 231.28387451 C-397.85050326 225.22502287 -393.22544825 219.36221183 -388.35054016 213.60809326 C-385.16536014 209.83905046 -382.06950902 205.99978239 -378.97163391 202.15887451 C-376.96382141 199.78387451 -376.96382141 199.78387451 -374.70600891 197.59637451 C-372.73282658 195.9625629 -372.73282658 195.9625629 -372.96382141 193.78387451 C-371.97382141 193.45387451 -370.98382141 193.12387451 -369.96382141 192.78387451 C-368.34903442 191.19564451 -368.34903442 191.19564451 -366.77241516 189.22528076 C-363.05307278 184.84389739 -359.10035687 180.77183792 -355.02632141 176.72137451 C-354.36180969 176.05299561 -353.69729797 175.3846167 -353.01264954 174.69598389 C-349.0702185 170.76120063 -345.0181939 167.01414498 -340.80097961 163.37591553 C-338.32656555 161.23164255 -335.92929127 159.00762744 -333.52632141 156.78387451 C-329.53817212 153.14729761 -325.47477118 149.73033118 -321.17475891 146.47137451 C-318.91654041 144.74778724 -316.72391176 142.95894852 -314.52632141 141.15887451 C-283.98709919 116.68955981 -249.56946943 95.92099352 -213.96382141 79.78387451 C-212.97124329 79.32496826 -211.97866516 78.86606201 -210.95600891 78.39324951 C-208.30050735 77.17001556 -205.63470735 75.9731011 -202.96382141 74.78387451 C-201.56196594 74.14772217 -201.56196594 74.14772217 -200.13179016 73.49871826 C-159.71137075 55.60607884 -116.93736021 44.75306104 -73.16767883 39.22283936 C-70.08954162 38.80109961 -67.04200709 38.28853914 -63.98335266 37.74481201 C-19.50044842 30.16391239 29.63214076 33.82858124 73.75102234 42.40447998 C76.5355989 42.86679109 79.22001095 42.93609979 82.03617859 42.78387451 C79.37401425 40.12171018 77.03094616 39.76786021 73.40336609 38.76043701 C72.39912094 38.47926529 72.39912094 38.47926529 71.37458801 38.19241333 C69.94803451 37.79432987 68.52058356 37.39945089 67.09233093 37.00750732 C64.96623399 36.42398486 62.84281892 35.8315122 60.71977234 35.23699951 C28.7707521 26.33546934 -3.0789727 20.95611282 -36.15132141 18.53387451 C-37.24122375 18.4537915 -38.3311261 18.3737085 -39.45405579 18.29119873 C-52.45053468 17.43049154 -64.87632485 17.74185421 -77.77632141 19.59637451 Z M-221.17475891 43.04168701 C-222.00080627 43.33494873 -222.82685364 43.62821045 -223.67793274 43.93035889 C-224.556026 44.25326904 -225.43411926 44.5761792 -226.33882141 44.90887451 C-227.24205139 45.23436279 -228.14528137 45.55985107 -229.07588196 45.89520264 C-231.70889417 46.84830371 -234.3367102 47.81464902 -236.96382141 48.78387451 C-238.17940735 49.22473389 -239.39499329 49.66559326 -240.64741516 50.11981201 C-248.15699918 52.91363977 -255.39898177 56.2021506 -262.61811829 59.66619873 C-265.29387959 60.94113995 -267.98028385 62.19222995 -270.66694641 63.44403076 C-289.12258536 72.10065272 -306.83447955 81.72723723 -323.96382141 92.78387451 C-324.60206848 93.19081543 -325.24031555 93.59775635 -325.89790344 94.01702881 C-336.90162185 101.0479803 -347.22856268 108.91477947 -357.54292297 116.91082764 C-359.66255692 118.55078645 -361.79105561 120.17792925 -363.92475891 121.79949951 C-371.20143556 127.368008 -377.97309243 133.32916841 -384.61225891 139.64324951 C-386.95788392 141.86944565 -389.36056603 144.00633322 -391.81147766 146.11590576 C-396.41715399 150.11992974 -400.72344327 154.39659877 -405.02632141 158.72137451 C-406.17197571 159.86122803 -406.17197571 159.86122803 -407.34077454 161.02410889 C-411.53831221 165.22882798 -415.57075137 169.5192493 -419.44697571 174.02191162 C-421.36790912 176.25326144 -423.35231034 178.42339018 -425.33882141 180.59637451 C-455.14980461 213.7252749 -481.27904994 253.8632783 -498.96382141 294.78387451 C-499.28995422 295.52911377 -499.61608704 296.27435303 -499.95210266 297.04217529 C-504.96559452 308.50190161 -509.80318409 319.98533899 -513.96382141 331.78387451 C-514.22872375 332.52943604 -514.4936261 333.27499756 -514.76655579 334.04315186 C-520.29596816 349.73237612 -524.7027462 365.71070245 -528.96382141 381.78387451 C-529.18167297 382.5818042 -529.39952454 383.37973389 -529.62397766 384.20184326 C-532.38057379 394.32221368 -533.98799183 404.62121622 -535.58882141 414.97137451 C-535.69350739 415.63922974 -535.79819336 416.30708496 -535.90605164 416.99517822 C-539.08933426 437.4974203 -540.34581444 457.85583007 -540.27632141 478.59637451 C-540.27483093 479.70539124 -540.27334045 480.81440796 -540.27180481 481.95703125 C-540.22665453 500.74594999 -539.28988189 519.13815383 -536.96382141 537.78387451 C-536.74701721 539.63214844 -536.74701721 539.63214844 -536.52583313 541.51776123 C-532.38540088 576.55324609 -524.10791133 610.67631903 -511.96382141 643.78387451 C-511.40910732 645.31771906 -510.85441822 646.85157265 -510.29975891 648.38543701 C-507.89789749 654.96500824 -505.34018244 661.43375741 -502.35835266 667.77606201 C-501.27916267 670.1037267 -500.24089714 672.43623435 -499.22554016 674.79168701 C-494.63893524 685.39322291 -489.53959037 695.62192508 -484.04341125 705.78045654 C-483.16610683 707.40848913 -482.30642446 709.0460087 -481.45210266 710.68621826 C-469.30892444 733.76919669 -454.03224055 755.30068651 -437.96382141 775.78387451 C-436.83653625 777.23406982 -436.83653625 777.23406982 -435.68647766 778.71356201 C-431.75653061 783.70965312 -427.62635407 788.47774242 -423.33491516 793.16668701 C-421.45238585 795.24460239 -419.61513086 797.34663859 -417.78486633 799.46990967 C-414.16019321 803.61502289 -410.35460042 807.53808372 -406.45600891 811.42449951 C-405.42324326 812.45870026 -405.42324326 812.45870026 -404.36961365 813.51379395 C-402.92714598 814.95693669 -401.48343655 816.39883925 -400.03852844 817.83953857 C-397.83407826 820.03860608 -395.6350515 822.24299617 -393.43647766 824.44793701 C-392.02664213 825.85711212 -390.61649664 827.2659772 -389.20600891 828.67449951 C-388.22771622 829.65582855 -388.22771622 829.65582855 -387.22966003 830.65698242 C-383.95005523 833.919851 -380.65570041 836.97864521 -376.96382141 839.78387451 C-376.30382141 839.45387451 -375.64382141 839.12387451 -374.96382141 838.78387451 C-381.20681522 831.05055499 -381.20681522 831.05055499 -387.77632141 823.59637451 C-393.6582043 817.04795619 -398.77153964 809.8807338 -403.96382141 802.78387451 C-404.41579895 802.16786377 -404.86777649 801.55185303 -405.33345032 800.91717529 C-411.55237674 792.41526354 -417.36300361 783.70308917 -422.96382141 774.78387451 C-423.38196106 774.12032959 -423.80010071 773.45678467 -424.23091125 772.77313232 C-426.79521661 768.70204613 -429.34441402 764.62196448 -431.87837219 760.53192139 C-432.79550128 759.05494337 -433.72057422 757.58290253 -434.64741516 756.11199951 C-439.2909166 748.61192673 -443.10709378 740.70547063 -446.96382141 732.78387451 C-447.43690735 731.8183667 -447.90999329 730.85285889 -448.39741516 729.85809326 C-454.365384 717.66399917 -460.28517305 705.53911795 -464.96382141 692.78387451 C-465.32685364 691.81176025 -465.68988586 690.839646 -466.06391907 689.83807373 C-472.20343555 673.35165908 -477.55668575 656.81381556 -481.96382141 639.78387451 C-482.22115051 638.81546631 -482.47847961 637.84705811 -482.74360657 636.8493042 C-500.2956127 570.44291747 -502.19470959 499.25596956 -490.14741516 431.77215576 C-489.01316848 425.31642386 -488.2239978 418.86151008 -487.52632141 412.34637451 C-483.77938954 378.81012032 -475.34028224 345.50611644 -463.96382141 313.78387451 C-463.68264465 312.99931885 -463.4014679 312.21476318 -463.11177063 311.40643311 C-459.98633718 302.75908582 -456.58722186 294.2349232 -452.96382141 285.78387451 C-452.21358704 283.98756592 -452.21358704 283.98756592 -451.44819641 282.15496826 C-446.89371275 271.36545497 -441.57956286 261.05548447 -435.96382141 250.78387451 C-435.48171204 249.89812744 -434.99960266 249.01238037 -434.50288391 248.09979248 C-423.39697999 227.79051805 -411.50073455 207.83943977 -396.96382141 189.78387451 C-395.9975489 188.50174775 -395.03563415 187.21633005 -394.07710266 185.92840576 C-386.45227271 175.71503269 -378.31669717 165.92173582 -369.59663391 156.62762451 C-367.61796536 154.49042762 -365.71047174 152.3325048 -363.81538391 150.12371826 C-359.62158496 145.31214877 -355.15302782 140.78700498 -350.64057922 136.27532959 C-349.22462194 134.85719167 -347.81683852 133.43090786 -346.40913391 132.00457764 C-340.99511014 126.57924323 -335.43559545 121.53969858 -329.43232727 116.77264404 C-326.97038757 114.78916459 -324.61717411 112.72067256 -322.27632141 110.59637451 C-313.11922682 102.36157721 -313.11922682 102.36157721 -307.96382141 99.78387451 C-307.96382141 99.12387451 -307.96382141 98.46387451 -307.96382141 97.78387451 C-307.39034973 97.51147949 -306.81687805 97.23908447 -306.22602844 96.95843506 C-303.94256389 95.7728374 -301.88726908 94.44908306 -299.76850891 92.99090576 C-298.97509094 92.44643799 -298.18167297 91.90197021 -297.36421204 91.34100342 C-296.11414368 90.47741211 -296.11414368 90.47741211 -294.83882141 89.59637451 C-293.98223938 89.00775635 -293.12565735 88.41913818 -292.24311829 87.81268311 C-287.96552335 84.8696002 -283.70329506 81.90669002 -279.46382141 78.90887451 C-271.82863164 73.54968585 -263.98760359 68.6955313 -255.75679016 64.30731201 C-252.90045145 62.74930908 -250.12488938 61.0888773 -247.33882141 59.40887451 C-240.42446338 55.33948671 -233.19003753 52.04715964 -225.91255188 48.6930542 C-221.8849205 46.81396384 -217.92100079 44.8062168 -213.96382141 42.78387451 C-217.34354592 41.65729968 -217.95794948 41.88156071 -221.17475891 43.04168701 Z M82.03617859 42.78387451 C86.03617859 43.78387451 86.03617859 43.78387451 86.03617859 43.78387451 Z M150.03617859 46.78387451 C153.62063083 49.72330964 157.62298819 51.73873378 161.72367859 53.84637451 C186.34672195 66.74591309 209.42881108 82.13928542 231.26664734 99.32293701 C239.58504176 105.83298482 248.23888074 111.67049001 257.05815125 117.47528076 C265.28950549 122.92085701 273.1814445 128.8125644 281.03617859 134.78387451 C281.79672546 135.35879639 282.55727234 135.93371826 283.34086609 136.52606201 C293.04286807 143.95360199 302.32263685 151.91434552 311.16630554 160.34344482 C313.47232328 162.50920745 314.98820899 163.76788464 318.03617859 164.78387451 C318.36617859 165.77387451 318.69617859 166.76387451 319.03617859 167.78387451 C320.66045955 169.43035052 320.66045955 169.43035052 322.66117859 171.03387451 C328.07435076 175.63651823 332.97939417 180.50957935 337.59867859 185.90887451 C340.49885675 189.28147989 343.53265279 192.04941536 347.03617859 194.78387451 C345.63426506 191.79132833 344.0025037 189.18841341 342.03617859 186.53387451 C341.52055359 185.82746826 341.00492859 185.12106201 340.47367859 184.39324951 C339.99930359 183.86215576 339.52492859 183.33106201 339.03617859 182.78387451 C338.37617859 182.78387451 337.71617859 182.78387451 337.03617859 182.78387451 C336.80930359 182.26824951 336.58242859 181.75262451 336.34867859 181.22137451 C334.55400241 177.88840446 332.53652844 174.6368378 330.03617859 171.78387451 C329.37617859 171.78387451 328.71617859 171.78387451 328.03617859 171.78387451 C327.76902039 171.19453125 327.50186218 170.60518799 327.22660828 169.99798584 C326.0179075 167.74989163 324.74727276 166.19795704 322.98930359 164.35809326 C322.39117859 163.72580811 321.79305359 163.09352295 321.17680359 162.44207764 C320.55289734 161.79174561 319.92899109 161.14141357 319.28617859 160.47137451 C315.71447825 156.72184587 312.16743917 152.98280544 308.82914734 149.02215576 C306.73490211 146.54957952 304.60011126 144.35694345 302.09867859 142.28387451 C299.46209791 140.04253078 296.95825544 137.7556067 294.53617859 135.28387451 C280.63197777 121.1351537 264.27258489 109.08638185 248.03617859 97.78387451 C247.44884949 97.37040771 246.86152039 96.95694092 246.25639343 96.53094482 C243.41174461 94.41677574 243.41174461 94.41677574 240.03617859 93.78387451 C240.03617859 93.12387451 240.03617859 92.46387451 240.03617859 91.78387451 C237.9591629 90.37125547 235.89626938 89.09809422 233.72367859 87.84637451 C233.05433289 87.45377441 232.38498718 87.06117432 231.69535828 86.65667725 C230.24045034 85.80509291 228.78348588 84.95701479 227.32475281 84.11199951 C225.0361099 82.78383465 222.75627726 81.44152713 220.47758484 80.09637451 C201.15229462 68.73595005 181.35319209 58.42947033 160.66117859 49.78387451 C159.94107605 49.48070312 159.22097351 49.17753174 158.47904968 48.86517334 C155.50987382 47.64856157 153.27696167 46.78387451 150.03617859 46.78387451 Z M-251.96382141 111.78387451 C-253.64798157 112.70813232 -253.64798157 112.70813232 -255.36616516 113.65106201 C-276.56868201 125.60535622 -296.69191482 140.74345077 -314.96382141 156.78387451 C-315.69600891 157.4168042 -316.42819641 158.04973389 -317.18257141 158.70184326 C-321.70174267 162.62025168 -326.13403518 166.63430602 -330.56929016 170.64715576 C-332.62860979 172.48475419 -334.71851217 174.26770686 -336.83882141 176.03387451 C-339.59932344 178.37514142 -341.75226746 180.90885437 -343.96382141 183.78387451 C-346.45585854 186.32269049 -348.99191351 188.81120046 -351.54194641 191.29168701 C-356.92656465 196.56609376 -361.88913555 201.938198 -366.58882141 207.84637451 C-368.78722908 210.56545768 -371.05314984 213.19961957 -373.35664368 215.82879639 C-379.24752279 222.5697423 -384.56687209 229.54492234 -389.65571594 236.90496826 C-391.04289925 238.8974585 -392.45189968 240.8730242 -393.86616516 242.84637451 C-403.30830962 256.04429917 -412.43559881 269.38614879 -419.96382141 283.78387451 C-420.75107314 285.20299934 -421.54269786 286.61970767 -422.33882141 288.03387451 C-429.65434962 301.2018253 -436.26818247 314.35939026 -441.80635071 328.38421631 C-443.10098929 331.65766562 -444.4309796 334.89806689 -445.90132141 338.09637451 C-461.94049982 373.81999916 -475.86663162 418.27622579 -475.96382141 457.78387451 C-475.9760675 458.82769287 -475.9883136 459.87151123 -476.00093079 460.94696045 C-476.88425852 538.02782087 -462.39691752 610.11846329 -428.96382141 679.78387451 C-428.59015442 680.56971924 -428.21648743 681.35556396 -427.83149719 682.16522217 C-415.78260214 707.4223363 -400.24646787 730.76637193 -383.74897766 753.30340576 C-382.34822146 755.24975191 -381.00904281 757.20489258 -379.71382141 759.22137451 C-378.08364568 761.78010261 -378.08364568 761.78010261 -376.10444641 763.63543701 C-373.86648399 765.88156718 -371.93505774 768.23866209 -369.96382141 770.72137451 C-365.06656631 776.75678055 -359.84065568 782.43358382 -354.52973938 788.10467529 C-352.94797942 789.80086254 -351.37798035 791.50718734 -349.81147766 793.21746826 C-337.69803841 807.79891837 -337.69803841 807.79891837 -322.79194641 818.79168701 C-320.96382141 819.78387451 -320.96382141 819.78387451 -319.96382141 822.78387451 C-318.41850881 824.23697736 -318.41850881 824.23697736 -316.40132141 825.65887451 C-312.56205364 828.54139185 -308.82386906 831.51623464 -305.11689758 834.56512451 C-298.58014038 839.93926567 -291.98879291 845.05645362 -284.96382141 849.78387451 C-283.33713304 850.92730968 -281.71217577 852.07321091 -280.08882141 853.22137451 C-276.37907211 855.81295762 -272.65121177 858.37567862 -268.90132141 860.90887451 C-267.98221985 861.53020264 -267.06311829 862.15153076 -266.11616516 862.79168701 C-262.15457132 865.2952965 -258.07130776 867.53081202 -253.96382141 869.78387451 C-252.54480487 870.58018733 -251.12681308 871.37832931 -249.70991516 872.17840576 C-239.93019176 877.67732097 -230.06148553 882.89428205 -219.96382141 887.78387451 C-219.2148761 888.1486792 -218.46593079 888.51348389 -217.69429016 888.88934326 C-201.78813203 896.61820617 -185.80922605 903.39038969 -168.96382141 908.78387451 C-167.56125977 909.2584915 -166.15893118 909.73379758 -164.75679016 910.20965576 C-159.30699756 912.03086688 -153.79587437 913.62667984 -148.27632141 915.22137451 C-147.28954407 915.50819092 -146.30276672 915.79500732 -145.28608704 916.09051514 C-143.24186677 916.68382793 -141.19658386 917.27348964 -139.15034485 917.85980225 C-137.00817581 918.48101814 -134.87076426 919.11885698 -132.73823547 919.7723999 C-70.95581584 938.34747716 -1.0171734 937.17672262 61.97367859 926.40887451 C62.80031006 926.26811493 63.62694153 926.12735535 64.47862244 925.98233032 C75.58164266 924.06258428 86.358532 921.49299352 97.17060852 918.32684326 C99.54261987 917.63647625 101.9244268 916.98566537 104.30961609 916.34246826 C105.00957703 916.15104248 105.70953796 915.9596167 106.43070984 915.76239014 C107.77382727 915.3954833 109.11760222 915.03097652 110.46195984 914.66864014 C133.95805547 908.21487085 159.21776537 899.59204355 180.03617859 886.78387451 C180.6421991 886.41310791 181.2482196 886.04234131 181.87260437 885.66033936 C185.98562809 883.11933734 190.01592514 880.46884665 194.03617859 877.78387451 C195.0635614 877.11485107 196.09094421 876.44582764 197.14945984 875.75653076 C203.7279586 871.44765673 210.0425 866.86615641 216.29399109 862.09783936 C218.29909656 860.58558072 220.32280201 859.10021577 222.34867859 857.61590576 C223.45131042 856.80331299 223.45131042 856.80331299 224.57621765 855.9743042 C226.03300903 854.9011839 227.49323147 853.83270362 228.95707703 852.76922607 C230.68665362 851.48871476 232.36675188 850.14187263 234.03617859 848.78387451 C234.03617859 848.12387451 234.03617859 847.46387451 234.03617859 846.78387451 C234.86569031 846.41455811 234.86569031 846.41455811 235.71195984 846.03778076 C243.5551621 841.8064061 250.13822816 834.9090453 256.25883484 828.53387451 C258.03617859 826.78387451 258.03617859 826.78387451 260.03617859 825.78387451 C260.03617859 825.12387451 260.03617859 824.46387451 260.03617859 823.78387451 C260.62552185 823.51977783 261.21486511 823.25568115 261.82206726 822.98358154 C264.12065008 821.73810399 265.62557375 820.43835237 267.46195984 818.58856201 C268.09013611 817.95917725 268.71831238 817.32979248 269.36552429 816.68133545 C270.01996521 816.01392334 270.67440613 815.34651123 271.34867859 814.65887451 C272.02438904 813.97599365 272.70009949 813.29311279 273.39628601 812.58953857 C277.1874615 808.73634822 280.89761619 804.84734799 284.38383484 800.71356201 C286.4517649 798.29853258 288.62225293 795.98821727 290.78617859 793.65887451 C296.06957702 787.86314653 300.89704362 781.76765588 305.67485046 775.5524292 C307.01264809 773.81444391 308.35913251 772.08354754 309.70805359 770.35418701 C322.42318327 754.01059349 333.97879102 736.72714139 344.30180359 718.77606201 C345.3934236 716.89277164 346.50532101 715.02094874 347.64555359 713.16668701 C380.15661632 659.75565538 399.51860113 593.71122191 405.03617859 531.78387451 C405.13116638 530.72192871 405.22615417 529.65998291 405.32402039 528.56585693 C406.24573025 516.75240399 406.23581971 504.93936647 406.22367859 493.09637451 C406.22307434 492.00917114 406.22247009 490.92196777 406.22184753 489.80181885 C406.19659658 473.05304704 405.90214814 456.44576568 404.03617859 439.78387451 C403.84281921 438.04847412 403.84281921 438.04847412 403.64555359 436.27801514 C401.54651214 418.19321817 398.15550052 400.50800681 394.03617859 382.78387451 C393.80704773 381.76519287 393.57791687 380.74651123 393.34184265 379.69696045 C388.22878502 357.02585585 380.42039492 335.20138258 371.77690125 313.65496826 C370.61261903 310.71394687 369.51877724 307.74661518 368.41117859 304.78387451 C366.66811108 300.2485144 364.71233918 295.93704614 362.47367859 291.62762451 C360.99071823 288.69394207 359.61321998 285.7248867 358.24028015 282.7387085 C354.26894805 274.12557205 349.86671616 265.94581731 345.03617859 257.78387451 C344.47285828 256.80289795 343.90953796 255.82192139 343.32914734 254.81121826 C334.9739128 240.27271882 325.90213658 226.33976976 316.03617859 212.78387451 C315.53296082 212.09229248 315.02974304 211.40071045 314.51127625 210.68817139 C308.75115177 202.81038133 302.82113297 195.14087919 296.42460632 187.76727295 C293.12487375 183.96126483 293.12487375 183.96126483 292.03617859 181.78387451 C291.37617859 181.78387451 290.71617859 181.78387451 290.03617859 181.78387451 C289.76410583 181.1903418 289.49203308 180.59680908 289.2117157 179.98529053 C288.06120962 177.83074986 286.8939717 176.33295297 285.22758484 174.56121826 C284.36822327 173.64360718 284.36822327 173.64360718 283.49150085 172.7074585 C282.86686951 172.05205078 282.24223816 171.39664307 281.59867859 170.72137451 C280.9463324 170.03180664 280.29398621 169.34223877 279.62187195 168.6317749 C274.18816999 162.92203096 268.66047685 157.30614863 263.09867859 151.72137451 C262.31887634 150.93689941 261.5390741 150.15242432 260.73564148 149.34417725 C255.99716022 144.61883457 251.12517312 140.1278221 246.03617859 135.78387451 C244.80162419 134.71637362 243.56724504 133.64867001 242.33305359 132.58074951 C241.1511232 131.56470409 239.96883481 130.54907498 238.78617859 129.53387451 C237.88899109 128.76043701 237.88899109 128.76043701 236.97367859 127.97137451 C232.06679786 123.04881932 232.06679786 123.04881932 226.03617859 120.78387451 C225.70617859 119.79387451 225.37617859 118.80387451 225.03617859 117.78387451 C223.40320324 116.54610399 223.40320324 116.54610399 221.35258484 115.51434326 C220.21671936 114.8983728 220.21671936 114.8983728 219.0579071 114.2699585 C218.24636169 113.84142578 217.43481628 113.41289307 216.59867859 112.97137451 C214.9312335 112.07177419 213.26455882 111.17074434 211.59867859 110.26824951 C210.79945984 109.83705811 210.00024109 109.4058667 209.17680359 108.96160889 C206.76050893 107.63220589 204.42577993 106.20074608 202.09867859 104.72137451 C191.69606604 98.37523999 180.14940461 93.50129119 168.87211609 88.94403076 C166.92731403 88.14842992 164.99527969 87.3211002 163.07524109 86.46746826 C122.59151702 68.48014776 79.02495037 57.41397829 35.03617859 52.78387451 C33.67432831 52.6346064 32.31251259 52.48502268 30.95072937 52.33514404 C-53.32576944 43.19096737 -139.13195599 57.44265934 -251.96382141 111.78387451 Z M347.03617859 226.78387451 C347.36617859 227.77387451 347.69617859 228.76387451 348.03617859 229.78387451 C348.03617859 228.79387451 348.03617859 227.80387451 348.03617859 226.78387451 C347.70617859 226.78387451 347.37617859 226.78387451 347.03617859 226.78387451 Z M349.03617859 229.78387451 C350.03364713 233.57425498 351.50520373 236.71776302 353.53617859 240.03387451 C363.88622705 256.96805018 372.20138331 274.57856305 380.03617859 292.78387451 C380.42547546 293.68331787 380.81477234 294.58276123 381.21586609 295.50946045 C408.46101772 359.03880369 419.20030648 427.96410109 418.03617859 496.78387451 C418.02361023 497.61612549 418.01104187 498.44837646 417.99809265 499.30584717 C417.40216591 530.0203978 413.06434366 560.70463961 407.03617859 590.78387451 C406.80704773 591.93210693 406.57791687 593.08033936 406.34184265 594.2633667 C401.43096007 618.30459596 394.03984118 641.96602102 385.03617859 664.78387451 C384.51457561 666.17714735 383.99649336 667.57174209 383.48149109 668.96746826 C383.2188446 669.67838623 382.95619812 670.3893042 382.68559265 671.12176514 C382.43003601 671.81463623 382.17447937 672.50750732 381.91117859 673.22137451 C379.83264863 678.85219438 377.52546001 684.32263676 375.03617859 689.78387451 C374.70037781 690.52194336 374.36457703 691.26001221 374.01860046 692.02044678 C369.14124166 702.65657279 363.86969593 712.94491456 358.01469421 723.07342529 C356.66506147 725.43258872 355.38139054 727.8252974 354.09867859 730.22137451 C346.66876604 743.88747405 338.895789 757.70910934 329.03617859 769.78387451 C329.36617859 770.44387451 329.69617859 771.10387451 330.03617859 771.78387451 C338.14366549 763.31764925 345.17872863 754.27769704 352.03617859 744.78387451 C352.59885437 744.00834229 353.16153015 743.23281006 353.74125671 742.43377686 C361.99761456 731.00633184 369.56561148 719.30979739 376.65873718 707.12860107 C377.95470967 704.92255361 379.27917754 702.73741916 380.61820984 700.55731201 C390.83345403 683.81660416 398.78033282 665.97135072 406.03617859 647.78387451 C406.88676668 645.76153232 407.74065454 643.74057306 408.59867859 641.72137451 C437.55547722 571.92322798 446.02308566 495.56153488 438.03617859 420.78387451 C437.93466492 419.80934326 437.83315125 418.83481201 437.7285614 417.83074951 C435.50919946 397.77083244 429.47617058 377.3590156 421.82670593 358.7243042 C420.95247184 356.57840779 420.11228963 354.42079898 419.27445984 352.26043701 C405.73967677 317.56465556 389.36760876 284.39133604 368.03617859 253.78387451 C367.40800232 252.87967773 367.40800232 252.87967773 366.76713562 251.95721436 C358.81882228 240.54833257 358.81882228 240.54833257 350.03617859 229.78387451 C349.70617859 229.78387451 349.37617859 229.78387451 349.03617859 229.78387451 Z M-413.96382141 243.78387451 C-412.96382141 245.78387451 -412.96382141 245.78387451 -412.96382141 245.78387451 Z M-414.96382141 245.78387451 C-413.96382141 247.78387451 -413.96382141 247.78387451 -413.96382141 247.78387451 Z M443.03617859 586.78387451 C442.70746765 588.16832764 442.70746765 588.16832764 442.37211609 589.58074951 C440.4522171 597.52811812 438.32912521 605.39146389 435.97367859 613.22137451 C435.72859558 614.03638428 435.48351257 614.85139404 435.23100281 615.69110107 C432.5445511 624.52853887 429.57425394 633.16152894 426.09867859 641.72137451 C425.76416687 642.55088623 425.42965515 643.38039795 425.08500671 644.23504639 C424.40771997 645.91456092 423.72883863 647.59343326 423.04838562 649.27166748 C422.38053971 650.92920111 421.71988958 652.58965461 421.06694031 654.25311279 C418.5979743 660.53155323 415.87808404 666.66592752 413.03617859 672.78387451 C412.59773621 673.73230225 412.15929382 674.68072998 411.70756531 675.65789795 C397.36228566 706.50718798 379.90657339 734.91504486 359.37992859 762.00994873 C358.2935996 763.44404511 357.21115732 764.88108517 356.12992859 766.31903076 C348.02762016 776.94338127 339.0349975 786.91918986 330.03617859 796.78387451 C329.16219421 797.75067139 328.28820984 798.71746826 327.38774109 799.71356201 C319.70096858 808.19285513 311.87148753 816.49421526 303.16117859 823.94012451 C300.59135725 826.16982244 298.09972109 828.47735753 295.59867859 830.78387451 C291.60917313 834.42168803 287.54377355 837.83908271 283.24320984 841.10028076 C281.00943647 842.80427425 278.83687603 844.56899128 276.66117859 846.34637451 C264.29299972 856.23707656 251.52598204 865.41755771 237.97026062 873.60272217 C236.02713617 874.78939676 234.10587358 876.00526879 232.18852234 877.23309326 C224.11975887 882.38850277 215.89333828 887.11108354 207.47441101 891.67156982 C199.44511064 896.04683122 191.73684911 900.86011878 184.03617859 905.78387451 C176.5159288 910.58248976 168.94616333 914.9497834 160.92289734 918.85809326 C155.50186557 921.51245107 150.19052232 924.38047616 144.87162781 927.23260498 C139.68469889 929.99123363 134.42931769 932.45732243 129.03617859 934.78387451 C128.23591248 935.13748047 127.43564636 935.49108643 126.61112976 935.85540771 C108.80140661 943.69619859 90.57868116 949.95109198 72.03617859 955.78387451 C70.41921082 956.29627686 70.41921082 956.29627686 68.76957703 956.81903076 C28.44914254 969.40353464 -12.96929458 973.93552593 -54.96382141 975.78387451 C-55.65171753 975.81416748 -56.33961365 975.84446045 -57.0483551 975.87567139 C-64.6857134 976.2093525 -72.323901 976.51519397 -79.96382141 976.78387451 C-79.96382141 977.11387451 -79.96382141 977.44387451 -79.96382141 977.78387451 C-75.67305003 978.27127459 -71.38106777 978.74715408 -67.08882141 979.22137451 C-65.31184875 979.42343506 -65.31184875 979.42343506 -63.49897766 979.62957764 C-47.43070796 981.39107244 -31.43680416 981.95159365 -15.2780304 981.91424561 C-12.53196174 981.90888552 -9.78605705 981.91423154 -7.03999329 981.92059326 C35.77624378 981.93925354 77.98753211 976.04023845 119.03617859 963.78387451 C119.93127136 963.52171143 120.82636414 963.25954834 121.74858093 962.98944092 C133.94465579 959.39122707 145.87400603 955.09182068 157.78617859 950.65887451 C158.47222168 950.40497955 159.15826477 950.15108459 159.86509705 949.88949585 C166.96079203 947.25494719 173.91514866 944.52526518 180.6401825 941.02557373 C183.2621915 939.66674575 185.91658076 938.3964366 188.58695984 937.13543701 C210.56776027 926.73936745 231.61308147 915.27493391 251.22367859 900.80731201 C254.03617859 898.78387451 254.03617859 898.78387451 256.91117859 897.13543701 C257.61242859 896.68942139 258.31367859 896.24340576 259.03617859 895.78387451 C259.03617859 895.12387451 259.03617859 894.46387451 259.03617859 893.78387451 C259.58403015 893.53508545 260.13188171 893.28629639 260.69633484 893.02996826 C269.53212205 888.32443217 277.28250611 880.98654494 284.85258484 874.49481201 C288.7010922 871.19877249 292.64571779 868.02378668 296.59867859 864.85418701 C299.23095804 862.61843684 301.61634522 860.24903617 304.03617859 857.78387451 C305.35510462 856.47388336 306.67555734 855.1654284 307.99711609 853.85809326 C309.46852743 852.39591121 310.93988019 850.93367021 312.41117859 849.47137451 C313.14078796 848.75014404 313.87039734 848.02891357 314.62211609 847.28582764 C318.72015969 843.20607887 322.63811056 839.03976579 326.41020203 834.65716553 C328.85727478 831.83788786 331.41934289 829.13056765 333.97367859 826.40887451 C338.93931851 821.0755825 343.60884192 815.57675116 348.03617859 809.78387451 C348.60207703 809.07360107 349.16797546 808.36332764 349.75102234 807.63153076 C351.22651647 805.88533727 351.22651647 805.88533727 351.03617859 803.78387451 C351.69617859 803.78387451 352.35617859 803.78387451 353.03617859 803.78387451 C354.5481065 801.94327036 354.5481065 801.94327036 356.09867859 799.53387451 C359.57768287 794.40653696 363.26030116 789.46942031 367.02055359 784.54559326 C368.86397621 782.01981848 370.44261785 779.47098708 372.03617859 776.78387451 C373.04729495 775.13036467 374.06039999 773.47806966 375.07524109 771.82684326 C381.5736751 761.22609666 388.032742 750.622985 393.98735046 739.70526123 C394.70564365 738.38939359 395.42853302 737.0760274 396.15531921 735.76483154 C401.86891627 725.44482936 406.67476012 714.93009833 411.11235046 704.00457764 C412.0651576 701.7142146 413.06861421 699.45204533 414.08695984 697.19012451 C416.7679463 691.20442511 419.00645216 685.06637647 421.25834656 678.90887451 C421.76206835 677.53273061 422.26871818 676.15765351 422.77885437 674.78387451 C429.53135735 656.57244174 434.71347987 638.00013571 438.84867859 619.03387451 C438.99570221 618.36073212 439.14272583 617.68758972 439.29420471 616.99404907 C442.85174053 602.03351356 442.85174053 602.03351356 444.03617859 586.78387451 C443.70617859 586.78387451 443.37617859 586.78387451 443.03617859 586.78387451 Z M-463.96382141 632.78387451 C-462.96382141 635.78387451 -462.96382141 635.78387451 -462.96382141 635.78387451 Z M-462.96382141 636.78387451 C-461.96382141 638.78387451 -461.96382141 638.78387451 -461.96382141 638.78387451 Z M-461.96382141 639.78387451 C-461.38850974 644.57181772 -460.42370296 648.89873919 -458.88960266 653.46746826 C-458.47218811 654.71745605 -458.05477356 655.96744385 -457.62471008 657.25531006 C-457.17569097 658.57748234 -456.72622002 659.89950124 -456.27632141 661.22137451 C-455.81826269 662.57915867 -455.36033681 663.93698764 -454.90254211 665.29486084 C-450.82402405 677.34974013 -446.72028921 689.36167551 -441.29975891 700.89324951 C-440.28875882 703.08079358 -439.31985821 705.26992738 -438.37788391 707.48699951 C-434.38849618 716.86521775 -429.92698689 725.88101574 -424.96382141 734.78387451 C-424.46511536 735.68154541 -423.9664093 736.57921631 -423.45259094 737.50408936 C-421.77493714 740.51747703 -420.08979519 743.52653709 -418.40132141 746.53387451 C-417.87135559 747.48012695 -417.34138977 748.42637939 -416.79536438 749.40130615 C-413.06236177 756.00447846 -409.09222352 762.42122498 -404.96382141 768.78387451 C-404.31155579 769.79578857 -403.65929016 770.80770264 -402.98725891 771.85028076 C-394.32060288 784.97348741 -385.16832021 797.80920755 -374.96382141 809.78387451 C-374.03140012 810.89053614 -373.09911654 811.99731382 -372.16694641 813.10418701 C-366.63331758 819.64343601 -360.96704035 826.03523437 -355.1217804 832.29754639 C-352.41603118 835.19729947 -349.77889758 838.13429491 -347.21382141 841.15887451 C-344.45789956 844.34437651 -341.46523415 847.02857764 -338.25288391 849.74481201 C-335.42670775 852.2623273 -332.79760149 854.95612023 -330.15132141 857.65887451 C-324.74066366 863.14224934 -319.00365401 867.99846869 -312.96382141 872.78387451 C-311.67550546 873.8362921 -310.38917547 874.89114375 -309.10444641 875.94793701 C-297.42693327 887.26209452 -297.42693327 887.26209452 -283.96382141 893.78387451 C-283.96382141 894.44387451 -283.96382141 895.10387451 -283.96382141 895.78387451 C-281.99489568 897.26666749 -281.99489568 897.26666749 -279.40132141 898.78387451 C-275.43922081 901.22792891 -271.53744412 903.72418101 -267.68916321 906.3414917 C-254.39544772 915.35715308 -241.52645765 923.26031597 -226.13179016 928.09393311 C-223.91791705 928.79848327 -221.72208291 929.54440677 -219.52632141 930.30340576 C-209.92045811 933.61166216 -200.24678563 936.54220783 -190.42329407 939.13201904 C-188.74658991 939.57641056 -187.07183921 940.02822296 -185.39888 940.48651123 C-119.46248544 958.51514733 -46.98426714 960.78280227 20.03617859 947.78387451 C20.03617859 947.45387451 20.03617859 947.12387451 20.03617859 946.78387451 C19.34889175 946.78831573 18.66160492 946.79275696 17.95349121 946.79733276 C11.32556353 946.83819684 4.69767327 946.86824446 -1.93035412 946.88749886 C-5.33408442 946.89773185 -8.73762633 946.91267726 -12.14131165 946.93475342 C-37.93856894 947.09757257 -63.50770844 946.27096877 -88.96382141 941.78387451 C-90.20212708 941.572146 -91.44043274 941.36041748 -92.71626282 941.14227295 C-108.98537441 938.36033479 -125.1115413 935.44701909 -140.96382141 930.78387451 C-143.22807073 930.13387851 -145.49240001 929.48416098 -147.75679016 928.83465576 C-150.18045623 928.13191292 -152.60363547 927.42748889 -155.02632141 926.72137451 C-156.15731262 926.39282471 -157.28830383 926.0642749 -158.4535675 925.72576904 C-165.1278439 923.74692372 -171.5404776 921.45711268 -177.96382141 918.78387451 C-179.92348355 918.0033212 -181.88449258 917.22614332 -183.84663391 916.45184326 C-201.55820746 909.42464765 -218.73442507 902.19403507 -235.49751282 893.11639404 C-237.96325799 891.78417892 -240.43757148 890.46900964 -242.91304016 889.15496826 C-274.52034036 872.23720654 -303.35649283 850.55366072 -330.58882141 827.34637451 C-331.14424622 826.87481934 -331.69967102 826.40326416 -332.27192688 825.91741943 C-335.05442959 823.52703895 -337.68500812 821.07261767 -340.23725891 818.43621826 C-342.56878265 815.55144662 -342.56878265 815.55144662 -344.96382141 815.78387451 C-344.96382141 815.12387451 -344.96382141 814.46387451 -344.96382141 813.78387451 C-345.62382141 813.78387451 -346.28382141 813.78387451 -346.96382141 813.78387451 C-346.96382141 813.12387451 -346.96382141 812.46387451 -346.96382141 811.78387451 C-348.48412026 810.28562128 -348.48412026 810.28562128 -350.46382141 808.72137451 C-354.51227688 805.30684089 -357.90230012 801.56047063 -361.29975891 797.50653076 C-361.84889954 796.9380542 -362.39804016 796.36957764 -362.96382141 795.78387451 C-363.62382141 795.78387451 -364.28382141 795.78387451 -364.96382141 795.78387451 C-365.17264954 795.25535889 -365.38147766 794.72684326 -365.59663391 794.18231201 C-367.52969001 790.79117932 -370.14480238 788.21272166 -372.83882141 785.40887451 C-376.69281904 781.39546579 -379.87006814 777.43076708 -382.96382141 772.78387451 C-384.61613792 771.1029802 -386.28286054 769.43612332 -387.96382141 767.78387451 C-389.41632361 765.95764456 -390.83225467 764.10184036 -392.21382141 762.22137451 C-395.57587271 757.65205238 -395.57587271 757.65205238 -399.01850891 753.14324951 C-411.93774672 736.47011996 -422.85255173 718.26272112 -432.96382141 699.78387451 C-433.41628235 698.95871338 -433.86874329 698.13355225 -434.33491516 697.28338623 C-439.50603839 687.79737286 -444.22917643 678.22906737 -448.44819641 668.28387451 C-449.71373747 665.36138795 -451.05870979 662.54513358 -452.52632141 659.72137451 C-455.83470332 653.29208567 -458.35118683 646.5174688 -460.96382141 639.78387451 C-461.29382141 639.78387451 -461.62382141 639.78387451 -461.96382141 639.78387451 Z M328.03617859 771.78387451 C328.03617859 774.78387451 328.03617859 774.78387451 328.03617859 774.78387451 Z M-374.96382141 839.78387451 C-374.63382141 840.77387451 -374.30382141 841.76387451 -373.96382141 842.78387451 C-373.30382141 842.45387451 -372.64382141 842.12387451 -371.96382141 841.78387451 C-372.95382141 841.12387451 -373.94382141 840.46387451 -374.96382141 839.78387451 Z M-85.96382141 975.78387451 C-85.96382141 976.11387451 -85.96382141 976.44387451 -85.96382141 976.78387451 C-83.98382141 976.78387451 -82.00382141 976.78387451 -79.96382141 976.78387451 C-79.96382141 976.45387451 -79.96382141 976.12387451 -79.96382141 975.78387451 C-81.94382141 975.78387451 -83.92382141 975.78387451 -85.96382141 975.78387451 Z " fill="#000000" transform="translate(582.9638214111328,39.21612548828125)"/>
</svg>
