<?xml version="1.0" standalone="no"?>
<!DOCTYPE svg PUBLIC "-//W3C//DTD SVG 20010904//EN"
 "http://www.w3.org/TR/2001/REC-SVG-20010904/DTD/svg10.dtd">
<svg version="1.0" xmlns="http://www.w3.org/2000/svg"
 width="900.000000pt" height="900.000000pt" viewBox="0 0 900.000000 900.000000"
 preserveAspectRatio="xMidYMid meet">
<metadata>
Created by potrace 1.10, written by Peter Selinger 2001-2011
</metadata>
<g transform="translate(0.000000,900.000000) scale(0.100000,-0.100000)"
fill="#000000" stroke="none">
<path d="M3945 7035 c-5 -2 -91 -8 -190 -15 -99 -6 -219 -18 -268 -26 -48 -8
-99 -14 -115 -14 -15 0 -58 -6 -97 -14 -104 -22 -184 -37 -235 -46 -64 -10
-203 -46 -301 -76 -26 -8 -54 -14 -63 -14 -8 0 -30 -6 -48 -14 -18 -8 -60 -22
-93 -31 -33 -10 -77 -24 -97 -31 -118 -43 -191 -71 -233 -90 -16 -7 -57 -25
-90 -39 -100 -45 -268 -130 -353 -180 -53 -31 -223 -147 -239 -162 -10 -10
-40 -36 -68 -58 -67 -53 -137 -126 -193 -199 -25 -34 -49 -63 -52 -66 -3 -3
-14 -18 -25 -35 -67 -103 -123 -225 -160 -350 -25 -82 -25 -358 -1 -425 8 -25
16 -53 16 -62 0 -19 15 -54 67 -163 42 -87 45 -92 114 -185 96 -129 226 -238
387 -326 99 -54 117 -63 128 -64 15 0 24 34 24 97 0 28 5 64 11 80 6 15 14 55
19 88 12 80 38 193 50 216 6 10 10 28 10 41 0 13 7 33 15 44 8 10 15 29 15 41
0 12 7 35 15 52 8 17 22 45 30 62 8 17 15 39 15 50 0 11 7 22 15 25 8 4 15 17
15 30 0 12 6 27 14 31 8 4 16 19 18 32 1 14 9 26 16 29 17 5 15 -33 -3 -48 -8
-7 -15 -23 -15 -35 0 -12 -7 -28 -15 -35 -8 -7 -15 -22 -15 -34 0 -11 -7 -30
-15 -40 -8 -11 -15 -29 -15 -41 0 -11 -6 -29 -14 -40 -7 -11 -16 -33 -18 -50
-3 -16 -10 -43 -16 -60 -29 -83 -42 -132 -42 -153 0 -13 -5 -33 -11 -45 -7
-11 -15 -50 -20 -86 -5 -36 -13 -86 -18 -111 -6 -25 -10 -73 -11 -107 0 -53 3
-64 21 -74 12 -6 25 -7 29 -2 4 4 15 51 24 103 35 193 95 397 156 535 27 62
112 231 131 260 10 17 23 39 29 50 6 11 19 34 30 50 11 17 25 40 31 53 7 12
16 22 21 22 4 0 8 7 8 15 0 9 7 18 15 21 8 4 15 12 15 19 0 18 17 28 24 16 4
-5 1 -16 -6 -23 -15 -16 -34 -45 -48 -73 -6 -11 -19 -33 -30 -50 -11 -16 -22
-37 -26 -45 -3 -8 -9 -22 -14 -30 -27 -47 -98 -200 -124 -267 -57 -150 -90
-269 -106 -386 -5 -38 -12 -72 -15 -78 -3 -5 -10 -59 -15 -121 -7 -80 -6 -116
2 -125 6 -8 36 -25 67 -40 207 -94 603 -290 686 -338 33 -19 69 -39 80 -45 11
-6 34 -19 50 -30 17 -11 37 -23 45 -27 8 -3 35 -22 60 -40 25 -18 59 -43 75
-55 17 -12 66 -58 111 -103 104 -105 144 -183 144 -280 0 -36 -7 -82 -15 -102
-8 -19 -15 -42 -15 -49 0 -33 -66 -145 -109 -187 -134 -129 -320 -149 -656
-72 -33 8 -84 17 -113 21 -45 5 -53 4 -50 -9 6 -29 190 -228 292 -317 162
-141 287 -229 496 -347 22 -13 59 -34 83 -48 43 -25 349 -177 402 -200 76 -32
136 -53 260 -89 28 -8 80 -17 118 -21 61 -6 67 -9 67 -29 0 -53 -69 -71 -161
-42 -24 7 -71 21 -104 31 -177 51 -424 166 -625 291 -158 97 -415 275 -440
304 -3 3 -27 23 -55 45 -47 37 -155 137 -231 214 -57 57 -49 27 14 -56 91
-119 275 -298 403 -393 122 -90 142 -104 174 -120 11 -6 34 -19 50 -29 103
-66 426 -207 585 -256 30 -10 70 -24 88 -31 18 -8 40 -14 49 -14 9 0 39 -6 67
-14 110 -32 233 -46 386 -46 209 0 509 32 700 75 36 9 74 15 84 15 11 0 42 6
70 14 28 8 80 22 116 32 79 20 174 51 198 63 9 5 37 19 62 31 25 11 52 25 60
30 8 5 22 11 30 14 8 4 29 15 45 26 17 11 39 24 50 30 11 6 34 19 50 30 17 11
38 23 47 26 9 3 19 13 22 21 3 8 11 11 16 8 11 -7 -27 -54 -43 -55 -5 0 -35
-20 -67 -45 -32 -25 -61 -45 -64 -45 -3 0 -24 -12 -48 -27 -67 -43 -79 -50
-137 -79 -113 -55 -191 -84 -316 -117 -33 -8 -80 -21 -105 -28 -25 -7 -65 -16
-90 -20 -25 -4 -70 -12 -100 -18 -186 -36 -444 -62 -640 -64 -240 -3 -498 47
-750 143 -30 12 -67 25 -81 30 -14 4 -34 12 -45 17 -10 6 -35 17 -54 26 -116
51 -243 118 -318 168 -24 16 -45 29 -48 29 -3 0 -60 41 -127 92 -127 96 -334
293 -407 388 -49 64 -120 170 -150 225 -6 11 -26 47 -44 80 -37 69 -65 81 -92
41 -28 -43 -9 -234 36 -366 50 -144 136 -297 249 -440 57 -73 245 -254 328
-318 75 -56 243 -170 273 -185 8 -5 42 -23 75 -42 119 -67 343 -172 415 -195
14 -5 50 -18 80 -30 62 -24 149 -53 230 -76 30 -9 73 -23 95 -30 23 -8 49 -14
59 -14 11 0 42 -6 70 -14 119 -34 294 -65 512 -92 95 -11 214 -16 430 -15 292
0 417 9 599 43 33 6 80 14 105 18 62 10 215 48 285 72 17 5 44 13 60 18 37 10
90 29 130 46 17 7 68 28 115 48 120 49 188 86 375 199 161 99 416 340 561 532
84 111 171 239 187 275 4 8 16 29 26 45 34 54 132 257 166 345 9 25 21 56 26
68 12 31 45 134 63 197 8 28 21 75 30 106 9 31 16 64 16 75 0 10 6 51 14 89
69 330 59 796 -26 1145 -6 25 -14 63 -19 85 -4 22 -17 72 -29 110 -11 39 -25
84 -30 100 -26 93 -83 238 -149 380 -18 39 -37 77 -41 85 -5 8 -19 35 -31 60
-18 37 -99 173 -162 274 -13 21 -120 171 -140 196 -7 8 -28 35 -47 60 -142
186 -505 538 -645 625 -16 11 -56 39 -87 62 -31 24 -59 43 -62 43 -2 0 -31 18
-64 39 -88 59 -286 163 -409 217 -137 59 -225 92 -318 119 -33 10 -78 24 -100
31 -58 18 -149 41 -230 58 -38 8 -101 22 -140 30 -38 9 -86 16 -105 16 -19 0
-53 5 -75 10 -37 10 -102 16 -400 40 -113 9 -378 12 -400 5z m610 -435 c234
-28 435 -71 543 -116 18 -8 39 -14 47 -14 8 0 29 -6 47 -14 18 -8 53 -22 78
-32 130 -50 362 -165 455 -225 17 -10 37 -22 45 -26 130 -67 371 -278 508
-445 61 -75 206 -279 223 -313 5 -11 19 -36 31 -55 11 -19 41 -75 67 -125 42
-83 58 -119 81 -185 5 -14 18 -50 30 -80 12 -30 26 -71 30 -90 4 -19 13 -48
18 -65 27 -76 65 -250 87 -395 21 -140 21 -459 0 -589 -31 -192 -69 -337 -128
-491 -29 -75 -125 -274 -158 -325 -10 -16 -24 -39 -29 -50 -34 -63 -42 -75
-51 -75 -5 0 -9 -9 -9 -20 0 -11 -7 -23 -15 -26 -8 -4 -15 -12 -15 -20 0 -8
-7 -14 -15 -14 -8 0 -15 5 -15 10 0 6 7 13 15 16 8 4 15 14 15 24 0 11 4 21 9
25 5 3 40 67 77 143 81 166 86 177 138 320 29 80 66 223 92 362 16 79 19 144
18 380 0 289 -6 353 -49 545 -8 33 -16 72 -19 86 -9 41 -37 102 -44 95 -3 -4
-9 -28 -12 -53 -9 -77 -20 -69 -72 47 -18 40 -115 238 -128 260 -119 212 -262
409 -390 538 -125 127 -301 270 -428 347 -22 14 -93 57 -117 72 -34 21 -277
139 -325 158 -25 10 -58 23 -75 30 -38 16 -92 34 -130 45 -16 5 -43 13 -60 18
-138 46 -357 89 -600 117 -147 17 -255 18 -365 5 -41 -5 -102 -12 -135 -15
-132 -12 -346 -68 -495 -127 -102 -41 -278 -127 -285 -138 -4 -6 -14 -10 -24
-10 -10 0 -24 -7 -31 -15 -15 -18 -30 -20 -30 -4 0 6 9 13 20 16 11 3 20 9 20
14 0 5 10 14 23 20 12 5 31 15 42 22 11 7 38 24 60 37 23 14 50 30 60 37 21
12 139 71 190 93 288 129 709 195 1015 161 225 -26 257 -30 315 -41 97 -19
254 -59 320 -82 17 -5 44 -13 60 -18 46 -13 152 -50 213 -76 17 -8 47 -20 65
-28 103 -43 240 -116 367 -196 40 -25 81 -49 91 -55 10 -5 19 -13 19 -18 0 -4
10 -12 23 -17 29 -13 54 -30 85 -57 14 -13 29 -23 35 -23 12 0 -56 67 -113
110 -25 18 -50 38 -55 44 -6 6 -18 16 -27 21 -9 6 -49 33 -89 60 -80 55 -84
57 -161 99 -112 62 -263 134 -368 176 -30 12 -63 26 -72 31 -40 20 -216 72
-318 93 -162 32 -223 38 -455 43 -271 6 -435 -11 -660 -68 -22 -6 -56 -14 -75
-18 -19 -4 -45 -13 -57 -19 -12 -7 -32 -12 -45 -12 -13 0 -33 -7 -44 -15 -10
-8 -31 -15 -45 -15 -15 0 -32 -7 -39 -15 -7 -8 -25 -15 -40 -15 -15 0 -33 -7
-40 -15 -7 -8 -23 -15 -35 -15 -12 0 -28 -7 -35 -15 -7 -8 -23 -15 -35 -15
-13 0 -25 -7 -29 -15 -7 -18 -50 -21 -44 -2 3 6 14 13 26 15 11 2 26 10 32 18
7 8 20 14 30 14 10 0 23 7 30 15 7 8 21 15 32 15 11 0 26 7 34 15 9 8 26 15
38 15 13 0 29 7 36 15 7 8 22 15 34 15 12 0 31 7 42 15 10 8 30 15 45 15 14 0
30 5 36 11 6 6 29 15 50 20 21 4 58 13 83 20 165 43 236 57 350 70 47 5 117
13 155 18 116 14 231 12 400 -9z m-1467 -322 c-5 -15 -48 -24 -48 -10 0 14 12
22 33 22 10 0 17 -5 15 -12z m-58 -28 c0 -12 -28 -25 -36 -17 -9 9 6 27 22 27
8 0 14 -5 14 -10z m-61 -41 c-7 -4 -17 -5 -22 -2 -5 3 -3 9 4 14 7 4 17 5 22
2 5 -3 3 -9 -4 -14z m401 -660 c110 -18 206 -45 295 -84 198 -87 330 -172 463
-300 144 -137 229 -258 283 -400 32 -82 34 -258 4 -325 -33 -78 -109 -165
-170 -196 -100 -51 -135 -58 -295 -59 -151 0 -260 15 -340 47 -14 6 -38 14
-55 19 -63 16 -149 52 -270 111 -187 91 -386 233 -522 372 -117 121 -178 220
-207 339 -16 63 -16 72 -1 124 23 80 63 132 147 194 125 94 206 131 338 154
141 26 191 26 330 4z m-1310 -243 c0 -16 -18 -31 -27 -22 -8 8 5 36 17 36 5 0
10 -6 10 -14z"/>
</g>
</svg>
