<?xml version="1.0" encoding="UTF-8"?>
<svg version="1.1" xmlns="http://www.w3.org/2000/svg" width="1080" height="1080">
<path d="M0 0 C1.01174286 0.00054382 2.02348572 0.00108765 3.06588745 0.00164795 C18.87698809 0.04066035 34.10950764 0.7262611 49.5625 4.375 C50.47596191 4.58930664 51.38942383 4.80361328 52.33056641 5.02441406 C83.52263646 12.63007586 111.42408657 28.37092664 138.78710938 44.71972656 C141.43971737 46.30177109 144.10112644 47.86777511 146.765625 49.4296875 C162.59089024 58.75059817 178.58936229 68.39471444 192.5625 80.375 C193.60691944 81.22667689 194.65259146 82.07681905 195.69921875 82.92578125 C204.76825672 90.37861888 212.70924725 98.67384679 220.62792969 107.32226562 C223.35446914 110.21534283 226.20907499 112.97117152 229.08056641 115.71972656 C230.5625 117.375 230.5625 117.375 230.5625 119.375 C229.77302979 119.58068604 228.98355957 119.78637207 228.17016602 119.99829102 C190.66388027 129.84652372 160.42297002 145.41699521 130.5625 170.375 C129.52998235 171.21879213 128.49742901 172.0625406 127.46484375 172.90625 C119.88199857 179.18042652 112.83688078 185.91936698 105.875 192.875 C105.00109619 193.74809814 104.12719238 194.62119629 103.22680664 195.52075195 C98.83044038 199.87070861 98.83044038 199.87070861 94.92651367 204.64648438 C94.47638916 205.21689453 94.02626465 205.78730469 93.5625 206.375 C92.9025 206.375 92.2425 206.375 91.5625 206.375 C91.294375 206.9525 91.02625 207.53 90.75 208.125 C89.53320811 210.43050043 88.25916121 212.39556192 86.5625 214.375 C85.9025 214.375 85.2425 214.375 84.5625 214.375 C84.28776855 214.96812988 84.01303711 215.56125977 83.72998047 216.17236328 C82.61330836 218.27914198 81.45692955 219.83876668 79.8828125 221.6171875 C79.36589844 222.20886719 78.84898437 222.80054688 78.31640625 223.41015625 C77.77886719 224.01730469 77.24132812 224.62445313 76.6875 225.25 C72.20947878 230.31451523 72.20947878 230.31451523 68.3046875 235.8203125 C67.72976563 236.66335937 67.15484375 237.50640625 66.5625 238.375 C65.9025 238.375 65.2425 238.375 64.5625 238.375 C64.32015625 239.08527344 64.0778125 239.79554688 63.828125 240.52734375 C62.37600187 243.7946208 60.554084 246.15036493 58.3125 248.9375 C45.27302473 265.46552146 33.46967109 283.1786388 22.5390625 301.1640625 C20.53671492 304.41688802 18.46385683 307.61465008 16.375 310.8125 C10.11420122 320.47045071 4.33920243 330.42269163 -1.4375 340.375 C-1.96891602 341.28926758 -2.50033203 342.20353516 -3.04785156 343.14550781 C-10.55450086 356.10985654 -17.59966535 369.27960026 -24.41357422 382.61743164 C-25.01057129 383.7852417 -25.60756836 384.95305176 -26.22265625 386.15625 C-26.77840332 387.24808594 -27.33415039 388.33992188 -27.90673828 389.46484375 C-29.17014233 391.86672195 -30.5044698 394.16453988 -31.93359375 396.46875 C-33.58200433 399.15780236 -33.58200433 399.15780236 -33.5390625 401.5859375 C-31.84252929 404.34129994 -29.60622531 405.40261448 -26.8125 407 C-25.61712311 407.7047185 -24.42316585 408.41184929 -23.23046875 409.12109375 C-22.60575684 409.48960449 -21.98104492 409.85811523 -21.33740234 410.23779297 C-10.14551767 416.9368162 0.02159314 424.72386224 9.99121094 433.11328125 C11.45077909 434.28528998 13.00499971 435.33666647 14.5625 436.375 C14.5625 437.035 14.5625 437.695 14.5625 438.375 C15.13226562 438.62765625 15.70203125 438.8803125 16.2890625 439.140625 C26.92276296 444.9142493 46.71913857 462.84491571 50.5625 474.375 C51.2225 474.375 51.8825 474.375 52.5625 474.375 C53.84008789 475.74511719 53.84008789 475.74511719 55.28515625 477.671875 C55.81915039 478.37731445 56.35314453 479.08275391 56.90332031 479.80957031 C57.47147461 480.57366211 58.03962891 481.33775391 58.625 482.125 C59.20991211 482.90198242 59.79482422 483.67896484 60.39746094 484.47949219 C61.57833013 486.04944514 62.75657722 487.62137396 63.93212891 489.1953125 C65.31447566 491.04340951 66.70582517 492.88375051 68.10546875 494.71875 C84.7600556 516.64974579 99.08133457 540.2112742 111.4375 564.8125 C112.07933228 566.08794678 112.07933228 566.08794678 112.73413086 567.38916016 C118.62064494 579.29470057 123.4557458 591.43693914 127.5625 604.0625 C127.99801398 605.38878962 128.43389128 606.71495999 128.87011719 608.04101562 C130.10951556 611.81624041 131.33635993 615.59544944 132.5625 619.375 C132.87251953 620.32197754 133.18253906 621.26895508 133.50195312 622.24462891 C137.62297789 634.83908461 141.20955969 647.55570005 144.5625 660.375 C144.81531738 661.34099121 145.06813477 662.30698242 145.32861328 663.30224609 C158.14613426 712.62732206 164.5987128 761.77753949 166.22807312 812.66249084 C166.38931227 817.50371336 166.61202676 822.3264631 166.97290039 827.15722656 C167.03641693 828.07189697 167.09993347 828.98656738 167.16537476 829.92895508 C167.28839258 831.64334448 167.42773013 833.35667384 167.58657837 835.06811523 C167.8473861 838.83058089 167.81925983 840.96018467 165.80712891 844.2109375 C163.26062103 846.5803443 161.13051678 848.375 157.5625 848.375 C157.2325 849.365 156.9025 850.355 156.5625 851.375 C154.34765625 853.41796875 154.34765625 853.41796875 151.625 855.5625 C150.28115234 856.63564453 150.28115234 856.63564453 148.91015625 857.73046875 C146.5625 859.375 146.5625 859.375 144.5625 859.375 C144.5625 860.035 144.5625 860.695 144.5625 861.375 C142.86975716 862.93932787 141.10680148 864.42828572 139.3125 865.875 C138.33796875 866.6690625 137.3634375 867.463125 136.359375 868.28125 C134.11355238 869.96248034 132.1159197 871.25635899 129.5625 872.375 C127.65406271 870.46656271 128.15758611 867.06620695 127.984375 864.51953125 C127.8780096 863.03486543 127.77096154 861.5502484 127.66333008 860.06567383 C127.60690338 859.27303131 127.55047668 858.48038879 127.49234009 857.66372681 C125.02039594 823.62740906 119.81256797 790.32198936 113.0682373 756.88690186 C112.56976931 754.4111053 112.07568574 751.93447421 111.58300781 749.45751953 C110.66887078 744.86559843 109.74321489 740.27608654 108.8125 735.6875 C108.67587952 735.00933228 108.53925903 734.33116455 108.39849854 733.63244629 C106.46998281 724.09852058 104.14315133 714.75093094 101.5625 705.375 C101.04997062 703.45073656 100.53819141 701.52627308 100.02734375 699.6015625 C93.63711967 675.9776048 86.24703729 652.5338387 76.31591797 630.14550781 C75.30286023 627.76485494 74.49308026 625.33257663 73.6875 622.875 C70.65866295 614.28001065 65.91069104 606.35399322 61.5625 598.375 C61.13066406 597.57481445 60.69882812 596.77462891 60.25390625 595.95019531 C55.11367151 586.43138675 49.72822377 577.27508822 43.5625 568.375 C42.57243988 566.89962967 41.5843123 565.42296147 40.59765625 563.9453125 C34.11703804 554.28456306 27.3523007 545.00969663 19.93945312 536.04443359 C18.59950142 534.41986094 17.27404935 532.78459495 15.953125 531.14453125 C11.83367724 525.99077874 11.83367724 525.99077874 7.3125 521.19921875 C5.5625 519.375 5.5625 519.375 5.5625 517.375 C4.964375 517.106875 4.36625 516.83875 3.75 516.5625 C1.56402146 515.37582594 0.14917406 514.27900887 -1.4375 512.375 C-1.4375 511.715 -1.4375 511.055 -1.4375 510.375 C-1.97761719 510.148125 -2.51773438 509.92125 -3.07421875 509.6875 C-6.15630804 507.97579421 -8.62765796 505.70086515 -11.25 503.375 C-22.90314026 493.32563998 -35.53895126 485.88616794 -49.4375 479.375 C-50.75234375 478.74271484 -50.75234375 478.74271484 -52.09375 478.09765625 C-55.88927195 476.32685816 -59.67568503 474.95157985 -63.6953125 473.76953125 C-64.58621582 473.5063208 -65.47711914 473.24311035 -66.39501953 472.97192383 C-67.06903809 472.77493896 -67.74305664 472.5779541 -68.4375 472.375 C-77.00312572 490.35640352 -85.51970883 508.34218094 -93.5246582 526.58154297 C-96.49216291 533.32147568 -99.63235172 539.91958479 -102.99609375 546.46875 C-104.91691147 550.34161825 -106.53168346 554.31226629 -108.15625 558.31640625 C-109.49397411 561.50981473 -110.94925677 564.62395969 -112.4375 567.75 C-116.13676006 575.53774847 -119.52741735 583.45792878 -122.9375 591.375 C-126.76947366 600.26739969 -130.63717356 609.12565356 -134.7890625 617.875 C-136.76128676 622.06247142 -138.66638613 626.27763921 -140.5625 630.5 C-140.93004395 631.31758789 -141.29758789 632.13517578 -141.67626953 632.97753906 C-143.73149709 637.55559928 -145.77789447 642.13751069 -147.81692505 646.72280884 C-148.94951854 649.26856011 -150.08452866 651.8132311 -151.21966553 654.35784912 C-152.03439062 656.18689485 -152.84562733 658.0174932 -153.65673828 659.84814453 C-156.31126423 665.79874128 -159.05848062 671.67364061 -162 677.48828125 C-165.18624396 683.79213426 -168.03817905 690.19420985 -170.8125 696.6875 C-174.27808395 704.68399423 -177.91690277 712.4755296 -182.09106445 720.12426758 C-187.70384633 730.44623719 -192.56540665 741.16001779 -197.49609375 751.8203125 C-201.34742411 760.12561463 -205.42041378 768.26913922 -209.72216797 776.35107422 C-212.41185055 781.40676747 -215.02395527 786.49184838 -217.5625 791.625 C-220.4585791 797.47606891 -223.47368549 803.25096892 -226.57202148 808.99731445 C-228.6699847 812.89887189 -230.67356245 816.83476156 -232.625 820.8125 C-234.60845836 824.82218672 -236.74791232 828.59870517 -239.17578125 832.3515625 C-240.59322496 834.62473848 -241.85937028 836.95140926 -243.125 839.3125 C-249.04595889 850.28233857 -255.30002523 861.14763109 -262.4375 871.375 C-263.85443196 873.41648256 -265.27107171 875.45816795 -266.6875 877.5 C-267.07075439 878.05051025 -267.45400879 878.60102051 -267.84887695 879.16821289 C-270.27033829 882.6556572 -272.63766324 886.17380684 -274.97290039 889.71948242 C-280.64934142 898.33283987 -286.6482845 906.68931602 -292.72460938 915.02392578 C-295.65867368 919.05115487 -298.57963042 923.08783523 -301.5 927.125 C-302.0360083 927.86339111 -302.5720166 928.60178223 -303.12426758 929.36254883 C-305.39210013 932.49555355 -307.61190062 935.62405492 -309.68359375 938.890625 C-310.26238281 939.71046875 -310.84117187 940.5303125 -311.4375 941.375 C-312.0975 941.375 -312.7575 941.375 -313.4375 941.375 C-313.74494141 942.39013672 -313.74494141 942.39013672 -314.05859375 943.42578125 C-315.92106671 947.40925742 -318.58208913 950.30471061 -321.5 953.5625 C-322.0885376 954.22886475 -322.6770752 954.89522949 -323.28344727 955.58178711 C-324.46230567 956.91430461 -325.64413249 958.24420266 -326.82910156 959.57128906 C-328.16364407 961.06788894 -329.48579755 962.57552557 -330.8046875 964.0859375 C-332.97761626 966.55405659 -335.19182504 968.97281932 -337.4375 971.375 C-337.92234863 971.89384766 -338.40719727 972.41269531 -338.90673828 972.94726562 C-353.49653276 988.41574842 -369.99021214 999.92544067 -388.4375 1010.375 C-389.14310059 1010.78202148 -389.84870117 1011.18904297 -390.57568359 1011.60839844 C-403.28139858 1018.90111818 -416.74110636 1024.23885238 -430.4375 1029.375 C-431.29085938 1029.69662109 -432.14421875 1030.01824219 -433.0234375 1030.34960938 C-479.19044524 1047.49194914 -528.34464662 1036.97475411 -571.93701172 1017.24365234 C-579.84848823 1013.55809879 -587.3377823 1009.47223322 -594.4375 1004.375 C-596.10416304 1003.21453834 -597.77097468 1002.05428233 -599.44067383 1000.89819336 C-601.10420662 999.74522912 -602.76316651 998.58567523 -604.421875 997.42578125 C-607.36753955 995.36386531 -607.36753955 995.36386531 -610.328125 993.73046875 C-611.02421875 993.28316406 -611.7203125 992.83585938 -612.4375 992.375 C-612.4375 991.715 -612.4375 991.055 -612.4375 990.375 C-613.13617187 990.13910156 -613.83484375 989.90320313 -614.5546875 989.66015625 C-617.9470834 988.147828 -620.6757602 986.10520498 -623.5625 983.8125 C-624.12799561 983.37067383 -624.69349121 982.92884766 -625.27612305 982.47363281 C-629.88070376 978.86012346 -634.40681805 975.15197625 -638.9140625 971.41796875 C-641.88491416 969.0127746 -644.94836721 966.76515152 -648.07421875 964.56640625 C-648.74904297 963.97666016 -648.74904297 963.97666016 -649.4375 963.375 C-649.4375 962.715 -649.4375 962.055 -649.4375 961.375 C-649.98148438 961.14941406 -650.52546875 960.92382812 -651.0859375 960.69140625 C-654.17390119 958.96276213 -656.48204974 956.72949856 -659.0625 954.3125 C-662.47959753 950.95966353 -662.47959753 950.95966353 -666.4375 948.375 C-666.4375 947.715 -666.4375 947.055 -666.4375 946.375 C-666.97375 946.16875 -667.51 945.9625 -668.0625 945.75 C-671.35728009 943.84249574 -674.03113628 941.32680616 -676.4375 938.375 C-676.4375 937.715 -676.4375 937.055 -676.4375 936.375 C-677.035625 936.106875 -677.63375 935.83875 -678.25 935.5625 C-680.43597854 934.37582594 -681.85082594 933.27900887 -683.4375 931.375 C-683.4375 930.715 -683.4375 930.055 -683.4375 929.375 C-684.4275 929.045 -685.4175 928.715 -686.4375 928.375 C-687.83984375 927.01953125 -687.83984375 927.01953125 -689.375 925.1875 C-689.98988281 924.45917969 -690.60476563 923.73085938 -691.23828125 922.98046875 C-691.96402344 922.12066406 -692.68976563 921.26085937 -693.4375 920.375 C-694.32473228 919.36924561 -695.21419317 918.36545432 -696.10546875 917.36328125 C-721.61895207 888.48179475 -742.63244699 852.96354485 -753.40625 815.8125 C-754.42070888 812.43097039 -755.54575599 809.10650934 -756.69775391 805.77026367 C-759.58139308 797.38524472 -761.7590479 789.09277848 -763.4375 780.375 C-763.93384566 778.10336512 -764.43390765 775.83253938 -764.9375 773.5625 C-765.4417006 771.16754716 -765.94163267 768.77169209 -766.4375 766.375 C-766.685 765.22 -766.9325 764.065 -767.1875 762.875 C-778.71822904 704.2604607 -773.7500066 636.83524147 -748.4375 582.375 C-747.83435428 580.97575589 -747.23567441 579.57458133 -746.640625 578.171875 C-736.85297951 555.2502102 -723.74052113 534.02672138 -708.4375 514.375 C-707.62839466 513.30084291 -706.82117176 512.22526586 -706.015625 511.1484375 C-698.97878253 501.78245096 -691.83658512 492.40732662 -682.1640625 485.625 C-679.64942786 483.80445003 -677.60348211 481.59381095 -675.4375 479.375 C-673.94311897 478.05610592 -672.44255753 476.74419739 -670.9375 475.4375 C-668.35122771 473.16652285 -665.98209579 470.97136779 -663.875 468.25 C-660.79678006 464.61927904 -657.29851076 462.11948713 -653.4375 459.375 C-645.96977376 453.91192978 -638.82869618 448.06513438 -631.74609375 442.11328125 C-625.49093514 436.89609656 -619.00949201 432.17524514 -612.26147461 427.62573242 C-610.89585956 426.68930545 -609.54170782 425.73612308 -608.19360352 424.7746582 C-602.13588765 420.45949926 -595.92261967 416.55940479 -589.5 412.8125 C-588.58798828 412.27431641 -587.67597656 411.73613281 -586.73632812 411.18164062 C-581.27008472 407.97142983 -575.75133092 404.87698093 -570.17651367 401.85961914 C-567.44536597 400.37926357 -564.72555614 398.87980161 -562.0078125 397.375 C-548.62727945 389.98938149 -535.28823299 383.40296408 -521.0546875 377.80859375 C-517.85015637 376.53854739 -514.67321936 375.22082339 -511.5 373.875 C-504.22176194 370.83349331 -496.85637686 368.05091214 -489.4375 365.375 C-488.40544434 365.00157471 -488.40544434 365.00157471 -487.35253906 364.62060547 C-437.85565186 346.91018079 -382.72272145 340.30753524 -330.4375 338.375 C-330.11281738 337.59213623 -329.78813477 336.80927246 -329.45361328 336.00268555 C-327.11619094 330.37774997 -324.76374033 324.76375091 -322.3125 319.1875 C-322.02955078 318.54369385 -321.74660156 317.8998877 -321.45507812 317.23657227 C-320.8151946 315.78090432 -320.17487134 314.32542962 -319.53417969 312.87011719 C-318.2822316 310.0217402 -317.03564628 307.17104111 -315.7890625 304.3203125 C-314.83863529 302.15100065 -313.88811441 299.98172983 -312.9375 297.8125 C-312.49905762 296.80872314 -312.06061523 295.80494629 -311.60888672 294.77075195 C-308.29588684 287.22298522 -304.83540924 279.7492619 -301.33343506 272.28805542 C-299.87131394 269.16604483 -298.42256893 266.03784997 -296.97265625 262.91015625 C-284.91217778 236.92609406 -284.91217778 236.92609406 -278.4375 224.375 C-278.00260254 223.52454102 -277.56770508 222.67408203 -277.11962891 221.79785156 C-270.61013501 209.07825206 -263.84695275 196.55952671 -256.55957031 184.26806641 C-255.63453718 182.70742521 -254.71839777 181.14151603 -253.8046875 179.57421875 C-240.02603014 156.15050124 -224.30821136 133.65635485 -207.4375 112.375 C-206.77363281 111.53582031 -206.10976563 110.69664063 -205.42578125 109.83203125 C-200.3153335 103.47379016 -194.91363806 97.45948908 -189.34765625 91.50390625 C-186.81269703 88.79064967 -184.33734391 86.02949733 -181.875 83.25 C-166.96166571 66.63460038 -166.96166571 66.63460038 -158.4375 60.375 C-157.7775 60.375 -157.1175 60.375 -156.4375 60.375 C-156.1075 59.385 -155.7775 58.395 -155.4375 57.375 C-150.98035714 53.375 -150.98035714 53.375 -148.4375 53.375 C-148.4375 52.715 -148.4375 52.055 -148.4375 51.375 C-146.05894769 49.41299619 -143.67281699 47.56832026 -141.1875 45.75 C-140.4538623 45.20875488 -139.72022461 44.66750977 -138.96435547 44.10986328 C-112.57152049 24.75434979 -85.25504245 12.10359275 -53.3125 5.125 C-52.19391602 4.8787085 -51.07533203 4.63241699 -49.92285156 4.37866211 C-33.2645302 0.88302277 -16.97817745 -0.03442403 0 0 Z M-383.6875 431 C-384.4295871 431.13405243 -385.17167419 431.26810486 -385.93624878 431.40621948 C-403.16809597 434.54302226 -419.98378945 438.78248172 -436.65625 444.15625 C-439.3180747 445.0141935 -441.97935525 445.84877718 -444.65625 446.65625 C-445.36209229 446.87079834 -446.06793457 447.08534668 -446.79516602 447.30639648 C-448.7364204 447.89544949 -450.67871828 448.48106057 -452.62109375 449.06640625 C-456.18836852 450.22580535 -459.56430678 451.70265223 -462.9753418 453.25708008 C-465.64026382 454.46706302 -468.32325822 455.62845313 -471.01171875 456.78515625 C-501.6805031 470.05918127 -530.69794212 484.97583813 -556.77734375 506.04589844 C-559.56918189 508.28101121 -562.41012763 510.45148029 -565.25 512.625 C-566.31905891 513.44655149 -567.38807084 514.26816411 -568.45703125 515.08984375 C-570.32658296 516.5232484 -572.19860653 517.95344096 -574.07421875 519.37890625 C-578.15355248 522.50077652 -581.84670504 525.68715652 -585.4375 529.375 C-586.53409582 530.28008507 -587.63844975 531.1758448 -588.75 532.0625 C-590.0803125 533.2071875 -590.0803125 533.2071875 -591.4375 534.375 C-591.4375 535.035 -591.4375 535.695 -591.4375 536.375 C-591.99018555 536.60316406 -592.54287109 536.83132813 -593.11230469 537.06640625 C-596.10996403 538.75345518 -598.2051506 540.88312518 -600.640625 543.3125 C-601.3646048 544.03360962 -601.3646048 544.03360962 -602.10321045 544.76928711 C-603.11749064 545.78221093 -604.12926804 546.79764638 -605.13867188 547.81542969 C-606.68921972 549.37673165 -608.25020503 550.92702497 -609.8125 552.4765625 C-610.79751734 553.46290061 -611.78191453 554.4498585 -612.765625 555.4375 C-613.6618457 556.33597656 -614.55806641 557.23445312 -615.48144531 558.16015625 C-617.65815347 560.13235592 -617.65815347 560.13235592 -617.4375 562.375 C-618.0975 562.375 -618.7575 562.375 -619.4375 562.375 C-621.25151482 564.46277162 -622.94839777 566.55566075 -624.625 568.75 C-625.12040283 569.39122803 -625.61580566 570.03245605 -626.1262207 570.69311523 C-630.05883855 575.81339777 -633.87270583 580.99024066 -637.4375 586.375 C-638.37142578 587.76138672 -638.37142578 587.76138672 -639.32421875 589.17578125 C-645.49801355 598.72151113 -650.02433235 608.92347181 -654.4375 619.375 C-654.97298462 620.62337646 -654.97298462 620.62337646 -655.51928711 621.89697266 C-657.78456252 627.32713296 -659.38534994 632.60301365 -660.5 638.375 C-660.6635498 639.19548828 -660.82709961 640.01597656 -660.99560547 640.86132812 C-661.48774803 643.36381304 -661.96312512 645.86909586 -662.4375 648.375 C-662.58074707 649.096875 -662.72399414 649.81875 -662.87158203 650.5625 C-668.56856873 679.40391554 -671.5401428 711.4425161 -657.4375 738.375 C-657.00824219 739.25285156 -656.57898438 740.13070313 -656.13671875 741.03515625 C-650.33123195 752.41140666 -642.42727186 761.55301304 -630.20703125 766.0078125 C-625.60483381 767.47268537 -621.37477442 767.91444487 -616.5625 767.875 C-615.75022949 767.87072998 -614.93795898 767.86645996 -614.10107422 767.86206055 C-604.80257755 767.60898548 -596.23354991 765.23839935 -587.4375 762.375 C-586.32246094 762.02566406 -585.20742188 761.67632813 -584.05859375 761.31640625 C-557.61482409 752.09654786 -534.72805522 733.69911775 -515.0625 714.25 C-514.4010498 713.59797607 -513.73959961 712.94595215 -513.05810547 712.27416992 C-512.45369629 711.66549072 -511.84928711 711.05681152 -511.2265625 710.4296875 C-510.41759521 709.61733643 -510.41759521 709.61733643 -509.59228516 708.78857422 C-508.22661503 707.42107209 -508.22661503 707.42107209 -508.4375 705.375 C-507.7775 705.375 -507.1175 705.375 -506.4375 705.375 C-504.9297621 703.73143114 -504.9297621 703.73143114 -503.375 701.5625 C-500.787356 698.13175068 -498.13656632 694.79224044 -495.375 691.5 C-488.70995544 683.39448269 -482.5953395 674.86804021 -476.4375 666.375 C-476.00501953 665.78074219 -475.57253906 665.18648437 -475.12695312 664.57421875 C-471.16713555 659.89546952 -471.16713555 659.89546952 -469.4375 654.375 C-468.7775 654.375 -468.1175 654.375 -467.4375 654.375 C-466.14559497 652.48918332 -464.95357397 650.53479795 -463.8046875 648.55859375 C-463.45187714 647.95587646 -463.09906677 647.35315918 -462.73556519 646.73217773 C-461.58645983 644.76352676 -460.4488869 642.78851621 -459.3125 640.8125 C-458.52655724 639.45504945 -457.7404243 638.09770899 -456.95410156 636.74047852 C-446.73836613 619.06209145 -437.90876369 600.94671911 -429.4375 582.375 C-428.75276611 580.87525635 -428.75276611 580.87525635 -428.05419922 579.34521484 C-424.15161503 570.78042301 -420.31206563 562.20352365 -416.74609375 553.4921875 C-415.03865804 549.42492274 -413.23845771 545.40154833 -411.4375 541.375 C-408.75242662 535.36824405 -406.13652213 529.34298755 -403.6328125 523.2578125 C-402.34768141 520.15837871 -401.01974998 517.07946306 -399.6875 514 C-396.62722925 506.88309129 -393.6932261 499.71665199 -390.77246094 492.54150391 C-388.45484694 486.84931922 -386.10577387 481.17122532 -383.73852539 475.49951172 C-374.01407945 452.15566506 -374.01407945 452.15566506 -365.4375 428.375 C-371.55825122 428.375 -377.67085142 429.91181013 -383.6875 431 Z " fill="#000000" transform="translate(815.4375,11.625)"/>
</svg>
